# xmcd
#
# Track frame offsets: 
#        182
#        16270
#        27757
#        42070
#        58557
#        75720
#        90020
#        100957
#        113220
#        125957
#        141370
#        151007
#        164782
#        180732
#        191557
#        208082
#        222682
#        236507
#        255057
#        261082
#
# Disc length: 3705 seconds
#
# Revision: 2
# Processed by: cddbd v1.5.2PL0 Copyright (c) Steve Scherf et al.
# Submitted via: ExactAudioCopy v1.0b4
#
DISCID=0f0e7714
DTITLE=Various Artist - Greatest Country Collection CD 3
DYEAR=1995
DGENRE=Country
TTITLE0=Billie Jo Spears - Blanket On The Ground
TTITLE1=Patsy Cline - Walkin' After Midnight
TTITLE2=The Bellamy Brothers - If I Said You Had A Beautiful Body
TTITLE3=Grant and Forsyth - Thorn Between Two Lovers
TTITLE4=John Denver - Calypso
TTITLE5=George Jones - Good Year For The Roses
TTITLE6=The Shirelles - To Know Him Is To Love Him
TTITLE7=Freddy Fender - Wasted Days And Wasted Nights
TTITLE8=Lynn Anderson - Top Of The World
TTITLE9=Piet Veerman - You Needed Me
TTITLE10=Pat Boone - Bernadine
TTITLE11=The Kingston Trio - Tom Dooley
TTITLE12=Toni Willé - Desperado
TTITLE13=Hank Locklin - Send Me The Pillow
TTITLE14=Roger Whittaker - The Last Farewell
TTITLE15=Sandra Van Reijs - The French Song
TTITLE16=Albert West - O What A Thrill
TTITLE17=Saskia and Serge - Country Medley
TTITLE18=Jim Reeves - Have I Told You Lately
TTITLE19=Wyonna Judd - Tell Me Why
EXTD=
EXTT0=
EXTT1=
EXTT2=
EXTT3=
EXTT4=
EXTT5=
EXTT6=
EXTT7=
EXTT8=
EXTT9=
EXTT10=
EXTT11=
EXTT12=
EXTT13=
EXTT14=
EXTT15=
EXTT16=
EXTT17=
EXTT18=
EXTT19=
PLAYORDER=
